<svg width="512" height="512" viewBox="0 0 512 512" xmlns="http://www.w3.org/2000/svg">
  <defs>
    <linearGradient id="grad1" x1="0%" y1="0%" x2="100%" y2="100%">
      <stop offset="0%" style="stop-color:#89b4fa;stop-opacity:1" />
      <stop offset="50%" style="stop-color:#cba6f7;stop-opacity:1" />
      <stop offset="100%" style="stop-color:#f5c2e7;stop-opacity:1" />
    </linearGradient>
  </defs>
  
  <!-- Background circle -->
  <circle cx="256" cy="256" r="240" fill="url(#grad1)" opacity="0.2"/>
  
  <!-- File icon -->
  <path d="M180 120C180 106.745 190.745 96 204 96H308L380 168V392C380 405.255 369.255 416 356 416H204C190.745 416 180 405.255 180 392V120Z" 
        fill="url(#grad1)" opacity="0.3"/>
  <path d="M308 96V152C308 165.255 318.745 176 332 176H380L308 96Z" 
        fill="url(#grad1)" opacity="0.5"/>
  <path d="M180 120C180 106.745 190.745 96 204 96H308L380 168V392C380 405.255 369.255 416 356 416H204C190.745 416 180 405.255 180 392V120Z" 
        stroke="url(#grad1)" stroke-width="8" fill="none"/>
  
  <!-- Sparkle/charm elements -->
  <circle cx="320" cy="300" r="12" fill="#f5c2e7"/>
  <circle cx="240" cy="280" r="8" fill="#89b4fa"/>
  <circle cx="360" cy="340" r="10" fill="#cba6f7"/>
  
  <!-- Star sparkle -->
  <path d="M420 200 L430 220 L450 220 L435 232 L442 252 L420 240 L398 252 L405 232 L390 220 L410 220 Z" 
        fill="#f5c2e7" opacity="0.8"/>
  <path d="M140 360 L146 372 L158 372 L148 380 L152 392 L140 384 L128 392 L132 380 L122 372 L134 372 Z" 
        fill="#89b4fa" opacity="0.8"/>
</svg>
