<svg width="32" height="32" viewBox="0 0 32 32" xmlns="http://www.w3.org/2000/svg">
        <path d="M6 2C4.89543 2 4 2.89543 4 4V28C4 29.1046 4.89543 30 6 30H26C27.1046 30 28 29.1046 28 28V10L20 2H6Z" 
              fill="#f7768e" opacity="0.2"/>
        <path d="M20 2V8C20 9.10457 20.8954 10 22 10H28L20 2Z" 
              fill="#f7768e" opacity="0.4"/>
        <path d="M6 2C4.89543 2 4 2.89543 4 4V28C4 29.1046 4.89543 30 6 30H26C27.1046 30 28 29.1046 28 28V10L20 2H6Z" 
              stroke="#f7768e" stroke-width="1.5" fill="none"/>
        <text x="16" y="22" font-family="Arial, sans-serif" font-size="8" font-weight="bold" 
              fill="#f7768e" text-anchor="middle">JAV</text>
      </svg>